<svg id="Layer_1" data-name="Layer 1" xmlns="http://www.w3.org/2000/svg" viewBox="0 0 15.64 15.06"><defs><style>.cls-1{fill:#05212d;}.cls-2{fill:#07212e;}.cls-3{fill:#062330;}.cls-4{fill:#06222f;}.cls-5{fill:#07222f;}</style></defs><path class="cls-1" d="M14.48,12.5h0a.06.06,0,0,0-.06,0h0l-.25.1c-.27.1-.54.2-.82.28s-.67.2-1,.3c0,0,0,0,0,0H12.2a0,0,0,0,0,0,0h0a8.15,8.15,0,0,0-.82.2l-1,.24h0l-.57.12-.36.09H9.35c-.15,0-.29,0-.43.08a2.74,2.74,0,0,0-.55.13s0,0-.08,0L7,14.38l-1.82.3c-.66.11-1.33.2-2,.28a9.5,9.5,0,0,1-1.51.1A1.83,1.83,0,0,1,.39,14.5,1.48,1.48,0,0,1,0,13.82v0a.53.53,0,0,0,0-.22V13.4l0-.24v-.05A.33.33,0,0,0,.1,13a0,0,0,0,0,0,0,.83.83,0,0,1,.07-.13,1.55,1.55,0,0,1,.43-.55h0l.13-.11c.21-.17.44-.3.66-.45a.07.07,0,0,0,.06,0,16.24,16.24,0,0,1,2.1-.91,4,4,0,0,1,3.82.56c.85.6,1.65,1.25,2.46,1.9.05,0,.09.1.14.08s0-.11,0-.16A1.94,1.94,0,0,0,9.79,12s0-.05,0-.07.22,0,.24-.18a.08.08,0,0,1,.08-.06s.07,0,.07,0,0,.19.18.17,0,.05.05.07a.15.15,0,0,0,.17,0c.07,0,0-.07,0-.11a.08.08,0,0,1,0-.11s.07,0,.09,0a.15.15,0,0,1,.07.12s0,.09.07.07a.29.29,0,0,0,.17-.17c0-.08,0-.13-.06-.18s0,.17-.13.08,0-.12,0-.17.11-.07.14,0,.06,0,.1,0l.13,0c.09,0,.19,0,.27,0s.07,0,0,0,0,.15.06.19a.29.29,0,0,1,.12.15c0,.12.05.24.08.37s0,.06,0,.07,0,0,.06-.06a.31.31,0,0,0,0-.19.09.09,0,0,1,0-.12s.1,0,.1,0,.12.16.17.24,0,.13-.07.18,0,.08-.09,0a.33.33,0,0,0-.36.08s0,.07,0,.08a2.32,2.32,0,0,1,.38.06c.05,0,.06,0,.07-.06s.07-.1.13,0a.1.1,0,0,0,.15,0c.05,0,.08,0,.11,0a1.63,1.63,0,0,0,.11.17c0,.06.07.07.13,0s.16-.22.2-.35l.14.11c.11.09.13.09.16,0a1.69,1.69,0,0,0-.08-1,2.8,2.8,0,0,0-1.45-1.5A3.86,3.86,0,0,0,9.82,9.7H9.38s-.1,0-.11,0,.06-.07.1-.08a2.33,2.33,0,0,1,.53-.16h0l.13,0s0,0,.07,0l.25,0a11.72,11.72,0,0,1,1.45.06c.52.08,1,.14,1.56.27a8,8,0,0,1,1.27.37,1.83,1.83,0,0,1,.48.25,1.21,1.21,0,0,1,.49.72,1,1,0,0,1-.28.87,2.26,2.26,0,0,1-.63.47h0l0,0a.05.05,0,0,0-.05,0h0A.17.17,0,0,0,14.48,12.5ZM1.89,11.79s-.14,0-.15-.1.06-.06,0-.08,0,0,0,.07c-.09.24-.09.24-.35.2-.07,0-.1,0-.09.08a.43.43,0,0,0,0,.17c.08.1.14.17,0,.26s0,0,0,.07,0,.08,0,.08a.78.78,0,0,1-.4,0s-.06-.08-.1,0-.16.1-.13.19A.22.22,0,0,1,.48,13c-.08.05-.06.12,0,.17a.24.24,0,0,0,.25.09c.05,0,.06,0,.08,0s0,.19,0,.32c-.06-.06-.11-.09-.16,0a.11.11,0,0,0,0,.13.79.79,0,0,1,.19.39s0,0,0,0a.49.49,0,0,1,.22.29c.05,0,.05-.18.12-.05a.26.26,0,0,0,.31.14c.1,0,.12,0,.13.1s0,.16.2.12.08,0,.1,0,0,.06-.07.08-.09,0-.08.07,0,.06.09.06h.33s.06,0,.06-.07.07-.16.18-.18a1.37,1.37,0,0,1,.34,0s.08,0,.09-.07,0-.12.12-.11.14,0,.15.11a.08.08,0,0,0,.1.06c.05,0,.06-.05.06-.09v-.12c0-.16,0-.33,0-.49s0-.11.09-.11.08.06.08.1a1.19,1.19,0,0,1,.06.42c0,.06,0,.13.09.13s.15,0,.15-.11,0-.08.07-.08.08,0,.09.06a.13.13,0,0,0,.17.11.14.14,0,0,0,.09-.17,4.78,4.78,0,0,0,0-.54c0-.09,0-.1.11-.12s.09,0,.1.07,0,.11.08.1a.33.33,0,0,1,.2,0s.1,0,.11-.06,0-.06-.09-.06-.15-.06-.14-.17.1.11.19.12a1.45,1.45,0,0,0-.19-.73,2.43,2.43,0,0,0-.9-.9A2,2,0,0,0,1.89,11.79ZM3,11.3l.15,0a3.23,3.23,0,0,1,1.33.51c.71.48,1.36,1,2,1.57,0,0,.06.08.1.06s0-.07,0-.11a1.87,1.87,0,0,0-.14-.62,2.76,2.76,0,0,0-2.81-1.67A1.56,1.56,0,0,0,3,11.3Z"/><path class="cls-2" d="M7.49,3.24H5.87a.48.48,0,0,1-.46-.34.47.47,0,0,1,.14-.56,8.42,8.42,0,0,1,.8-.52.24.24,0,0,0,.12-.24,4.22,4.22,0,0,1,0-.71A1,1,0,0,1,7.57,0a1.09,1.09,0,0,1,1,1.07c0,.19,0,.38,0,.57a.17.17,0,0,0,.09.17l.74.47a.5.5,0,0,1,.25.49.49.49,0,0,1-.51.47H7.49ZM7.5.62A.42.42,0,0,0,7.08,1a.46.46,0,0,0,.45.46A.43.43,0,0,0,8,1.06.45.45,0,0,0,7.5.62Z"/><path class="cls-3" d="M3.58,8.15V9.81c0,.1,0,.15-.13.17s-.25.08-.37.12-.1,0-.12,0C3,9.37,3,8.66,3,8V2.44a.86.86,0,0,1,.92-.94H6.23c0,.05-.05.06-.07.08l-.78.5a.22.22,0,0,1-.14,0H3.94a.32.32,0,0,0-.35.22s0,.06,0,.1V8.15Z"/><path class="cls-4" d="M11.48,8.62V2.53c0-.29-.13-.42-.42-.42H9.81a.36.36,0,0,1-.2-.06l-.7-.45a.27.27,0,0,1-.08-.07c0-.05.08,0,.12,0h2.19a.89.89,0,0,1,.93.92V8.63c0,.06,0,.12-.08.11h0a1.5,1.5,0,0,0-.37,0h0s-.05,0-.08,0S11.49,8.64,11.48,8.62Z"/><path class="cls-5" d="M9.39,6.75V4.26c0-.11,0-.15.15-.15H10c.2,0,.2,0,.2.2V7.72c0,.21,0,.43,0,.64-.07,0-.15,0-.23.05h0a.7.7,0,0,0-.25.05h0l-.16,0c-.06,0-.06-.09-.06-.16,0-.4,0-.8,0-1.21Z"/><path class="cls-5" d="M8.57,7.38v.16a3.39,3.39,0,0,0,0,.55.81.81,0,0,0,0,.22V8.6l0,0a4.26,4.26,0,0,0-.62.13c-.1,0-.12,0-.13-.11s0-.2,0-.3V7.88c0-.64,0-1.29,0-1.94,0-.36,0-.71,0-1.07,0,0,0,0,0,0A.16.16,0,0,1,8,4.75H8.4c.15,0,.17,0,.17.18V7.38Z"/><path class="cls-3" d="M7,8.46v.37C7,8.89,7,9,6.9,9l-.69.12c0-.06,0-.11,0-.16,0-.63,0-1.26,0-1.89,0-.17,0-.19.17-.19h.47A.16.16,0,0,1,7,6.94V8.46Z"/><path class="cls-5" d="M13,12.5c0,.13-.05.28-.2.35s-.1,0-.13,0a1.63,1.63,0,0,1-.11-.17c0-.05-.06-.07-.11,0a.1.1,0,0,1-.15,0c-.06-.07-.11-.09-.13,0s0,.08-.07.06a2.32,2.32,0,0,0-.38-.06s-.06,0,0-.08a.33.33,0,0,1,.36-.08s.07,0,.09,0,.12-.1.07-.18-.15-.13-.17-.24-.07,0-.1,0a.09.09,0,0,0,0,.12.31.31,0,0,1,0,.19s0,.07-.06.06,0,0,0-.07,0-.25-.08-.37a.29.29,0,0,0-.12-.15c-.05,0-.12-.09-.06-.19s0-.06,0,0-.18,0-.27,0l-.13,0s-.08,0-.1,0-.08-.06-.14,0-.1.12,0,.17.08,0,.13-.08.1.1.06.18a.29.29,0,0,1-.17.17c-.06,0-.07,0-.07-.07a.15.15,0,0,0-.07-.12s0-.07-.09,0a.08.08,0,0,0,0,.11s.06.07,0,.11a.15.15,0,0,1-.17,0s0-.07-.05-.07-.19,0-.18-.17,0,0-.07,0a.08.08,0,0,0-.08.06c0,.14-.12.18-.24.18a3.55,3.55,0,0,0-1.31-1.27,3.79,3.79,0,0,0-2.31-.39l-.34.06s-.06,0-.08,0,0-.06,0-.07a2.42,2.42,0,0,1,.77-.3,4.93,4.93,0,0,1,4.4,1,1.35,1.35,0,0,1,.27.2s0,.06.06.05h0s0,0,.05,0l0,0,0,0,.07.06c0,.05,0,.05.07.05l0,0,0,0a.39.39,0,0,1,.1.08l0,0h0l0,0,.07.06,0,0h0l0,0,.4.32h0s0,.07,0,.1,0,.11,0,.12a.11.11,0,0,0,.12-.08l.13.1a.05.05,0,0,0,.05,0l0,0,0,0h0c0,.06,0,.06.07.06l.06,0c0,.06,0,.07.08.07h0s0,.09.06.05Zm-3-1s-.1,0-.1.07a.06.06,0,0,0,.07.06s.12,0,.12-.07S10.07,11.47,10,11.47Zm.74-.13s0-.05,0,0a.17.17,0,0,0-.12.11s0,.06,0,.05S10.73,11.39,10.77,11.34Zm1,.41s0,0,0,0,0,0,0,0,0,0,0,0S11.77,11.78,11.77,11.75Zm-1.3.15h0v0h0S10.47,11.89,10.47,11.9Z"/><path class="cls-3" d="M4.62,7.83l0,0h.54c.17,0,.19,0,.19.18,0,.42,0,.83,0,1.25l0,.08H5.19a5.43,5.43,0,0,1-.56.09h0a.27.27,0,0,1,0-.15V8A.68.68,0,0,1,4.62,7.83Z"/><path class="cls-1" d="M11.77,11.75s0,.05,0,.05,0,0,0,0,0,0,0,0S11.77,11.73,11.77,11.75Z"/><path class="cls-1" d="M3.16,13.5c-.1,0-.19,0-.24-.07s0,0,0,0c-.16,0-.15-.08-.14-.17a.48.48,0,0,1,0-.17c.05-.09.12-.1.17,0s.07,0,.11,0,0-.05.09,0,0,.06,0,.09a.13.13,0,0,0,0,.17c.07.08.17.08.21,0s.08-.09.15-.08.07,0,.06.08-.06.1-.13.1-.11,0-.14.08S3.2,13.48,3.16,13.5Z"/><path class="cls-1" d="M2.5,13.29s0,0,0,0l0,0s0,0,0,.06Z"/><path class="cls-1" d="M2.25,11.42h0l-.07,0-.07,0,0,0-.12.09-.09.08.1-.07-.05,0L2,11.59H2l.13,0h0l.13,0h0l.12.05h0a.42.42,0,0,0-.19-.06.45.45,0,0,0-.2,0,.56.56,0,0,0-.17.09.44.44,0,0,0-.13.14l-.05.12a.62.62,0,0,0,0,.27l.05.12a.58.58,0,0,0,.18.17l0,0h0l.12.05h.35l.08,0,.08,0,.14-.1,0,0,.07-.06-.1.08s0,0,.05,0l-.12.05h0a.56.56,0,0,0,.17-.09.57.57,0,0,0,.13-.14A.6.6,0,0,0,2.88,12a.45.45,0,0,0,0-.2l-.05-.12a.77.77,0,0,0-.18-.18l-.12-.05a.62.62,0,0,0-.27,0Z"/><path class="cls-1" d="M4.79,12.63A3.4,3.4,0,0,0,3,11.42a.5.5,0,0,0-.61.61,1.18,1.18,0,0,0,.52.7,6.27,6.27,0,0,0,.73.5,1.75,1.75,0,0,1,.29.18h0l.06.06.12.12a1.5,1.5,0,0,0,.66.45l-.12-.91-.16.09c-.09.06,0,0,0,0l-.18.05c-.06,0-.06,0,0,0H3.56l.3.23,0,0,.07.26c0,.07,0,.07,0,0a1.1,1.1,0,0,0,0-.18,1.08,1.08,0,0,0,0-.18,1.1,1.1,0,0,0-.17-.51,1.14,1.14,0,0,0-.88-.53.74.74,0,0,0-.82.48.67.67,0,0,0,.54.85,1.12,1.12,0,0,0,1-.22.74.74,0,0,0-.05-1.05,2.67,2.67,0,0,0-1.49-.76l.36.48v-.09a.5.5,0,0,0-.5-.5.52.52,0,0,0-.5.5v.09a.5.5,0,0,0,.37.48,2,2,0,0,1,.33.08l.16,0h0l.09,0,.29.17c.08,0,0,0,.05,0l.11.1s0,0,0,0A.33.33,0,0,1,3,12.73H3l-.07,0H2.84s0,0,0,0,0,0,0,0,.19.34,0,.59l0,0h0c.06,0,.06,0,0,0s.05,0,0,0l0,0s0,0,0,0l0,.08c0-.11,0,.11,0,0a.28.28,0,0,1,0,.09c0-.05,0-.05,0,0a1,1,0,0,0,0,.24.56.56,0,0,0,.42.52c.13,0,.27,0,.4,0A2.21,2.21,0,0,0,5.13,14,.5.5,0,0,0,5,13.09c-.09,0,.07,0,0,0H5L4.92,13l-.18-.19a2.51,2.51,0,0,0-.55-.42A5.27,5.27,0,0,1,3.6,12l-.19-.15a.94.94,0,0,1-.1-.1s0,0,0,0,0,.05,0,0l-.61.61a1.8,1.8,0,0,1,.22.06l.11,0c.05,0,0,0,0,0a3.26,3.26,0,0,1,.4.24h0l.11.09.15.15c.12.11.24.24.35.36a.5.5,0,0,0,.71,0,.52.52,0,0,0,0-.71Z"/><path class="cls-1" d="M2,12.56a.5.5,0,0,0,0-1,.5.5,0,0,0,0,1Z"/><path class="cls-1" d="M1.59,11.64c-.26.16-.51.34-.76.52a1.33,1.33,0,0,0-.36.35.79.79,0,0,0-.08.29s0,.08,0,.13v0a1.45,1.45,0,0,0-.09.46,1.06,1.06,0,0,0,.19.51,2.73,2.73,0,0,0,.56.74,1.65,1.65,0,0,0,.91.33,7.21,7.21,0,0,0,.9-.19l.46,0a2.9,2.9,0,0,0,.42-.12A.89.89,0,0,1,4,14.6a1.18,1.18,0,0,0,.49-.12.51.51,0,0,0,0-.87,3,3,0,0,0-1.82-.27H2c.07,0-.09,0,0,0l0,0s0,0,0,0H2l0-.1s0,0,0,0,0,.05,0,0,0,0,0,0l-.05.05a.17.17,0,0,1-.14,0,.23.23,0,0,1-.16-.17q0,.09,0,0a1.42,1.42,0,0,0,.13.5.93.93,0,0,0,.8.5.88.88,0,0,0,.83-.58.68.68,0,0,0-.64-.87.5.5,0,0,0-.5.5.51.51,0,0,0,.5.5h0l-.25-.07s-.2-.41,0-.47.06,0,.1,0,0,0,0,0,0,0,0,0,0,0,0,0a.84.84,0,0,0-.53-.81.87.87,0,0,0-.88.23,1.11,1.11,0,0,0,.35,1.67,2.12,2.12,0,0,0,.94.12h.9a1.15,1.15,0,0,1,.66.14v-.87s.11,0,0,0H3.9l-.39.06-.32.11a1.45,1.45,0,0,1-.29,0,4.45,4.45,0,0,0-.73.12L2,14s-.14,0-.07,0-.05,0-.07,0l-.17-.06-.09-.06c-.06-.08-.11-.18-.17-.26a2.92,2.92,0,0,1-.17-.27s0,0,0,.05l.06-.16a1.52,1.52,0,0,0,0-.21V13a.15.15,0,0,1-.08.11l.05,0,.16-.12c.19-.14.39-.28.6-.41a.52.52,0,0,0,.18-.69.51.51,0,0,0-.69-.17Z"/><path class="cls-1" d="M10,11.88l.06,0-.1-.07c.14.11.26.25.4.36a1.34,1.34,0,0,0,.62.33.52.52,0,0,0,.53-.18.48.48,0,0,0,0-.55l-.15-.26-.68.68c.13.08.25.17.37.26l-.1-.08a3.31,3.31,0,0,1,.44.4.51.51,0,0,0,.71,0,.52.52,0,0,0,0-.71,4.35,4.35,0,0,0-.92-.73.5.5,0,0,0-.6.08.53.53,0,0,0-.08.61l.15.25.57-.73-.14,0,.12.05a.72.72,0,0,1-.21-.12l.1.07c-.22-.16-.39-.37-.62-.53a.51.51,0,0,0-.38,0,.58.58,0,0,0-.3.23.51.51,0,0,0,.18.69Z"/><path class="cls-1" d="M12.15,13.19a.5.5,0,0,0,0-1,.5.5,0,0,0,0,1Z"/><path class="cls-1" d="M12.25,13.19a.5.5,0,0,0,0-1,.5.5,0,0,0,0,1Z"/><path class="cls-1" d="M12.31,13.19a.5.5,0,0,0,0-1,.5.5,0,0,0,0,1Z"/><path class="cls-1" d="M10.53,11.83l.46.36a.39.39,0,0,0,.16.1.34.34,0,0,0,.2,0,.31.31,0,0,0,.19,0,.34.34,0,0,0,.16-.1l.08-.1a.59.59,0,0,0,.07-.26l0-.13a.5.5,0,0,0-.13-.22l-.46-.36a.34.34,0,0,0-.16-.1.41.41,0,0,0-.19,0,.46.46,0,0,0-.2,0,.39.39,0,0,0-.16.1l-.07.1a.45.45,0,0,0-.07.25l0,.14a.48.48,0,0,0,.12.22Z"/><path class="cls-1" d="M12.15,13a.5.5,0,0,0,0-1,.5.5,0,0,0,0,1Z"/><path class="cls-1" d="M11.6,12.7a.48.48,0,0,0,.15.11.09.09,0,0,1,.06,0l-.1-.08.2.14L12,13l-.1-.08,0,0a.42.42,0,0,0,.16.11.41.41,0,0,0,.19,0,.45.45,0,0,0,.2,0,.42.42,0,0,0,.16-.11l.08-.1a.51.51,0,0,0,.06-.25v-.13a.54.54,0,0,0-.13-.22.49.49,0,0,0-.14-.11l-.05,0-.1-.05.1.08a.65.65,0,0,0-.16-.13l-.07,0,.1.08h0a.42.42,0,0,0-.16-.11.41.41,0,0,0-.19,0,.45.45,0,0,0-.2,0,.42.42,0,0,0-.16.11l-.08.1a.54.54,0,0,0-.06.25v.13a.54.54,0,0,0,.13.22Z"/></svg>